<?xml version="1.0"?>
<svg width="32" height="37" xmlns="http://www.w3.org/2000/svg" xmlns:svg="http://www.w3.org/2000/svg">
 <g class="layer">
  <title>Layer 1</title>
  <path d="m6.3,14.7l0,2.78c0,5.14 3.64,8.52 8.79,8.52c1.7,0 3.24,-0.37 4.52,-1.05l2.46,2.44c-1.54,0.95 -3.35,1.54 -5.36,1.75l0,2.75l5.56,0c0.92,0 1.71,0.76 1.71,1.68c0,0.91 -0.79,1.68 -1.71,1.68l-14.34,0c-0.94,0 -1.72,-0.77 -1.72,-1.68c0,-0.92 0.78,-1.68 1.72,-1.68l5.55,0l0,-2.75c-6.2,-0.64 -10.59,-5.02 -10.59,-11.55l0,-2.89c0,-0.92 0.76,-1.65 1.69,-1.65c0.94,0 1.72,0.73 1.72,1.65zm10.89,7.83c-0.64,0.26 -1.35,0.39 -2.1,0.39c-3.11,0 -5.6,-2.35 -5.6,-5.82l0,-2.26l7.7,7.69zm10.11,-7.83l0,2.89c0,1.91 -0.38,3.64 -1.08,5.14l-2.68,-2.67c0.23,-0.8 0.35,-1.66 0.35,-2.58l0,-2.78c0,-0.92 0.78,-1.65 1.71,-1.65c0.94,0 1.7,0.73 1.7,1.65zm-6.62,-7.87l0,10.27c0,0.03 0,0.06 0,0.09l-11.15,-11.13c0.34,-3.04 2.68,-5.06 5.56,-5.06c3.11,0 5.59,2.37 5.59,5.83z" fill="#ff0000" id="svg_1" transform="matrix(1 0 0 1 0 0)"/>
  <path d="m27.35,29.96c0.47,0.46 1.24,0.46 1.69,0c0.45,-0.47 0.47,-1.22 0,-1.69l-25,-24.98c-0.47,-0.46 -1.24,-0.47 -1.71,0c-0.44,0.45 -0.44,1.23 0,1.68l25.02,24.99z" fill="#ff0000" id="svg_2" stroke-width="2"/>
 </g>

</svg>