<?xml version="1.0"?>
<svg width="32" height="37" xmlns="http://www.w3.org/2000/svg" xmlns:svg="http://www.w3.org/2000/svg">
 <g class="layer">
  <title>Layer 1</title>
  <path d="m3.5,17.59c0,6.52 4.39,10.89 10.58,11.53l0,2.75l-5.54,0c-0.93,0 -1.72,0.75 -1.72,1.68c0,0.91 0.79,1.67 1.72,1.67l14.31,0c0.93,0 1.72,-0.76 1.72,-1.67c0,-0.93 -0.79,-1.68 -1.72,-1.68l-5.54,0l0,-2.75c6.18,-0.64 10.57,-5.01 10.57,-11.53l0,-2.89c0,-0.92 -0.76,-1.64 -1.7,-1.64c-0.93,0 -1.71,0.72 -1.71,1.64l0,2.78c0,5.13 -3.64,8.5 -8.78,8.5c-5.14,0 -8.78,-3.37 -8.78,-8.5l0,-2.78c0,-0.92 -0.78,-1.64 -1.71,-1.64c-0.94,0 -1.7,0.72 -1.7,1.64l0,2.89zm12.19,5.32c3.11,0 5.58,-2.34 5.58,-5.81l0,-10.25c0,-3.46 -2.47,-5.82 -5.58,-5.82c-3.11,0 -5.6,2.35 -5.6,5.81l0,10.26c0,3.47 2.49,5.81 5.6,5.81z" fill="#7fff00" id="svg_1"/>
 </g>
</svg>