<svg width="32" height="37" xmlns="http://www.w3.org/2000/svg"><path d="M3.5 17.59c0 6.52 4.39 10.89 10.58 11.53v2.75H8.54c-.93 0-1.72.75-1.72 1.68 0 .91.79 1.67 1.72 1.67h14.31c.93 0 1.72-.76 1.72-1.67 0-.93-.79-1.68-1.72-1.68h-5.54v-2.75c6.18-.64 10.57-5.01 10.57-11.53V14.7c0-.92-.76-1.64-1.7-1.64-.93 0-1.71.72-1.71 1.64v2.78c0 5.13-3.64 8.5-8.78 8.5s-8.78-3.37-8.78-8.5V14.7c0-.92-.78-1.64-1.71-1.64-.94 0-1.7.72-1.7 1.64zm12.19 5.32c3.11 0 5.58-2.34 5.58-5.81V6.85c0-3.46-2.47-5.82-5.58-5.82s-5.6 2.35-5.6 5.81V17.1c0 3.47 2.49 5.81 5.6 5.81" fill="#6DB569" class="layer"/></svg>